<svg width="62" height="26" viewBox="0 0 62 26" fill="none" xmlns="http://www.w3.org/2000/svg">
<path d="M7.584 8.296C8.032 8.296 8.59733 8.33867 9.28 8.424C9.96267 8.488 10.6133 8.62667 11.232 8.84C11.8507 9.032 12.384 9.30933 12.832 9.672C13.28 10.0347 13.504 10.4933 13.504 11.048C13.504 11.368 13.408 11.6453 13.216 11.88C13.0453 12.1147 12.768 12.232 12.384 12.232C12.1067 12.232 11.7867 12.1893 11.424 12.104C11.0827 12.0187 10.6987 11.9227 10.272 11.816C9.86667 11.688 9.41867 11.5813 8.928 11.496C8.45867 11.4107 7.95733 11.368 7.424 11.368C6.528 11.368 5.792 11.5067 5.216 11.784C4.66133 12.0613 4.384 12.4987 4.384 13.096C4.384 13.4373 4.48 13.7253 4.672 13.96C4.88533 14.1947 5.16267 14.408 5.504 14.6C5.86667 14.7707 6.28267 14.92 6.752 15.048C7.24267 15.176 7.75467 15.304 8.288 15.432C8.94933 15.6027 9.6 15.7947 10.24 16.008C10.9013 16.2213 11.488 16.52 12 16.904C12.512 17.2667 12.928 17.736 13.248 18.312C13.568 18.8667 13.728 19.56 13.728 20.392C13.728 21.9707 13.1307 23.2293 11.936 24.168C10.7413 25.0853 8.98133 25.544 6.656 25.544C6.144 25.544 5.536 25.5013 4.832 25.416C4.128 25.352 3.46667 25.2133 2.848 25C2.22933 24.808 1.696 24.5307 1.248 24.168C0.821333 23.784 0.608 23.2827 0.608 22.664C0.608 22.2373 0.704 21.9173 0.896 21.704C1.10933 21.4693 1.36533 21.352 1.664 21.352C1.89867 21.352 2.144 21.4267 2.4 21.576C2.656 21.7253 2.96533 21.8853 3.328 22.056C3.69067 22.2267 4.128 22.3867 4.64 22.536C5.152 22.6853 5.78133 22.76 6.528 22.76C6.80533 22.76 7.168 22.7493 7.616 22.728C8.064 22.6853 8.50133 22.5893 8.928 22.44C9.376 22.2907 9.74933 22.088 10.048 21.832C10.368 21.5547 10.528 21.1707 10.528 20.68C10.528 20.296 10.4213 19.976 10.208 19.72C9.99467 19.4427 9.70667 19.208 9.344 19.016C8.98133 18.824 8.55467 18.664 8.064 18.536C7.59467 18.3867 7.09333 18.2373 6.56 18.088C5.94133 17.9173 5.312 17.7253 4.672 17.512C4.05333 17.2987 3.488 17.0213 2.976 16.68C2.464 16.3387 2.048 15.912 1.728 15.4C1.408 14.8667 1.248 14.216 1.248 13.448C1.248 12.7227 1.39733 12.0507 1.696 11.432C1.99467 10.792 2.42133 10.2373 2.976 9.768C3.53067 9.29867 4.192 8.936 4.96 8.68C5.74933 8.424 6.624 8.296 7.584 8.296ZM24.0628 8.776C25.2788 8.776 26.3668 8.968 27.3268 9.352C28.2868 9.71467 29.0974 10.2373 29.7588 10.92C30.4414 11.6027 30.9641 12.4347 31.3268 13.416C31.6894 14.3973 31.8708 15.496 31.8708 16.712C31.8708 18.056 31.6574 19.2613 31.2308 20.328C30.8254 21.3947 30.2494 22.3013 29.5028 23.048C28.7774 23.7947 27.9028 24.3707 26.8788 24.776C25.8761 25.1813 24.7774 25.384 23.5828 25.384C22.2814 25.384 21.1294 25.16 20.1268 24.712C19.1454 24.264 18.3134 23.656 17.6308 22.888C16.9694 22.12 16.4681 21.2347 16.1268 20.232C15.7854 19.2293 15.6148 18.1733 15.6148 17.064C15.6148 15.848 15.8068 14.7387 16.1908 13.736C16.5961 12.712 17.1614 11.8373 17.8868 11.112C18.6334 10.3653 19.5294 9.78933 20.5748 9.384C21.6201 8.97867 22.7828 8.776 24.0628 8.776ZM23.7108 22.44C24.5854 22.44 25.3321 22.2907 25.9508 21.992C26.5694 21.672 27.0708 21.256 27.4548 20.744C27.8601 20.232 28.1481 19.656 28.3188 19.016C28.5108 18.3547 28.6068 17.672 28.6068 16.968C28.6068 16.2427 28.5108 15.5707 28.3188 14.952C28.1481 14.312 27.8708 13.7573 27.4868 13.288C27.1241 12.8187 26.6441 12.456 26.0468 12.2C25.4708 11.9227 24.7774 11.784 23.9668 11.784C23.1348 11.784 22.4094 11.9227 21.7908 12.2C21.1721 12.4773 20.6494 12.8613 20.2228 13.352C19.8174 13.8213 19.5081 14.3867 19.2948 15.048C19.0814 15.7093 18.9748 16.424 18.9748 17.192C18.9748 18.7493 19.3694 20.0187 20.1588 21C20.9694 21.96 22.1534 22.44 23.7108 22.44ZM42.4378 8.776C43.6538 8.776 44.7418 8.968 45.7018 9.352C46.6618 9.71467 47.4724 10.2373 48.1338 10.92C48.8164 11.6027 49.3391 12.4347 49.7018 13.416C50.0644 14.3973 50.2458 15.496 50.2458 16.712C50.2458 18.056 50.0324 19.2613 49.6058 20.328C49.2004 21.3947 48.6244 22.3013 47.8778 23.048C47.1524 23.7947 46.2778 24.3707 45.2538 24.776C44.2511 25.1813 43.1524 25.384 41.9578 25.384C40.6564 25.384 39.5044 25.16 38.5018 24.712C37.5204 24.264 36.6884 23.656 36.0058 22.888C35.3444 22.12 34.8431 21.2347 34.5018 20.232C34.1604 19.2293 33.9898 18.1733 33.9898 17.064C33.9898 15.848 34.1818 14.7387 34.5658 13.736C34.9711 12.712 35.5364 11.8373 36.2618 11.112C37.0084 10.3653 37.9044 9.78933 38.9498 9.384C39.9951 8.97867 41.1578 8.776 42.4378 8.776ZM42.0858 22.44C42.9604 22.44 43.7071 22.2907 44.3258 21.992C44.9444 21.672 45.4458 21.256 45.8298 20.744C46.2351 20.232 46.5231 19.656 46.6938 19.016C46.8858 18.3547 46.9818 17.672 46.9818 16.968C46.9818 16.2427 46.8858 15.5707 46.6938 14.952C46.5231 14.312 46.2458 13.7573 45.8618 13.288C45.4991 12.8187 45.0191 12.456 44.4218 12.2C43.8458 11.9227 43.1524 11.784 42.3418 11.784C41.5098 11.784 40.7844 11.9227 40.1658 12.2C39.5471 12.4773 39.0244 12.8613 38.5978 13.352C38.1924 13.8213 37.8831 14.3867 37.6698 15.048C37.4564 15.7093 37.3498 16.424 37.3498 17.192C37.3498 18.7493 37.7444 20.0187 38.5338 21C39.3444 21.96 40.5284 22.44 42.0858 22.44ZM53.8763 12.008C53.6416 12.0293 53.4069 12.0507 53.1723 12.072C52.9589 12.072 52.7456 12.072 52.5323 12.072C51.8283 12.072 51.3056 11.9653 50.9642 11.752C50.6016 11.5173 50.4202 11.08 50.4202 10.44C50.4202 9.94933 50.5589 9.56533 50.8362 9.288C51.0922 8.98933 51.6149 8.84 52.4043 8.84C52.8949 8.84 53.3963 8.872 53.9083 8.936V7.08C53.9083 6.22667 54.0043 5.416 54.1963 4.648C54.3883 3.88 54.6869 3.208 55.0923 2.632C55.4976 2.03466 56.0203 1.56533 56.6603 1.224C57.3216 0.861332 58.1216 0.679998 59.0603 0.679998C59.9136 0.679998 60.5109 0.807999 60.8523 1.064C61.1936 1.29867 61.3643 1.69333 61.3643 2.248C61.3643 2.80267 61.1403 3.144 60.6923 3.272C60.2443 3.4 59.7323 3.464 59.1562 3.464C58.4523 3.464 57.9189 3.77333 57.5563 4.392C57.2149 5.01067 57.0443 5.768 57.0443 6.664V8.904C57.3216 8.84 57.5883 8.808 57.8443 8.808C58.1216 8.78667 58.4096 8.776 58.7083 8.776C59.4976 8.776 60.0523 8.904 60.3723 9.16C60.7136 9.416 60.8843 9.82133 60.8843 10.376C60.8843 11.08 60.6603 11.5387 60.2123 11.752C59.7643 11.944 59.1669 12.04 58.4203 12.04C58.2283 12.04 58.0043 12.04 57.7483 12.04C57.5136 12.04 57.2789 12.0187 57.0443 11.976V22.984C57.0443 23.496 57.0016 23.8907 56.9163 24.168C56.8309 24.4453 56.7136 24.6587 56.5643 24.808C56.4149 24.9573 56.2443 25.0427 56.0523 25.064C55.8603 25.1067 55.6576 25.128 55.4443 25.128C55.2523 25.128 55.0603 25.096 54.8683 25.032C54.6763 24.9893 54.5056 24.8933 54.3563 24.744C54.2283 24.5733 54.1109 24.3493 54.0043 24.072C53.9189 23.7947 53.8763 23.4427 53.8763 23.016V12.008Z" fill="#E7F5FF"/>
</svg>
